<?xml version="1.0" encoding="UTF-8" standalone="no"?>
<!-- Created with Inkscape (http://www.inkscape.org/) -->

<svg
   xmlns:dc="http://purl.org/dc/elements/1.1/"
   xmlns:cc="http://creativecommons.org/ns#"
   xmlns:rdf="http://www.w3.org/1999/02/22-rdf-syntax-ns#"
   xmlns:svg="http://www.w3.org/2000/svg"
   xmlns="http://www.w3.org/2000/svg"
   xmlns:xlink="http://www.w3.org/1999/xlink"
   xmlns:sodipodi="http://sodipodi.sourceforge.net/DTD/sodipodi-0.dtd"
   xmlns:inkscape="http://www.inkscape.org/namespaces/inkscape"
   width="96"
   height="96"
   viewBox="0 0 96.000001 96.000004"
   version="1.1"
   id="svg1072"
   inkscape:version="0.92.2 5c3e80d, 2017-08-06"
   sodipodi:docname="document-open-recent.svg">
  <defs
     id="defs1066">
    <linearGradient
       y2="47.000011"
       x2="90"
       y1="47.000011"
       x1="6"
       gradientTransform="matrix(1.1071428,0,0,1.1071426,-5.142859,1022.484)"
       gradientUnits="userSpaceOnUse"
       id="linearGradient4071"
       xlink:href="#linearGradient6139-0"
       inkscape:collect="always" />
    <linearGradient
       id="linearGradient6139-0">
      <stop
         style="stop-color:#b2babc;stop-opacity:1"
         offset="0"
         id="stop6141-2" />
      <stop
         id="stop6151-0"
         offset="0.25"
         style="stop-color:#ffffff;stop-opacity:1;" />
      <stop
         id="stop6147-1"
         offset="0.5"
         style="stop-color:#96a1a4;stop-opacity:1" />
      <stop
         style="stop-color:#fbf9f9;stop-opacity:1;"
         offset="0.75"
         id="stop6149-4" />
      <stop
         style="stop-color:#b2b9bc;stop-opacity:1"
         offset="1"
         id="stop6143-4" />
    </linearGradient>
    <linearGradient
       gradientUnits="userSpaceOnUse"
       y2="88.171875"
       x2="94.5"
       y1="88.171875"
       x1="1.5"
       id="linearGradient4129"
       xlink:href="#linearGradient3832-0-6-1-1"
       inkscape:collect="always"
       gradientTransform="translate(-2.95e-6,1026.5197)" />
    <linearGradient
       id="linearGradient3832-0-6-1-1">
      <stop
         id="stop3834-6-3-7-1"
         offset="0"
         style="stop-color:#000000;stop-opacity:1;" />
      <stop
         style="stop-color:#000000;stop-opacity:0.58823532;"
         offset="0.1"
         id="stop3872-2-4" />
      <stop
         id="stop3844-6-2-7-6"
         offset="0.89999998"
         style="stop-color:#000000;stop-opacity:0.58823532;" />
      <stop
         id="stop3836-5-0-2-9"
         offset="1"
         style="stop-color:#000000;stop-opacity:1;" />
    </linearGradient>
    <radialGradient
       r="43.199203"
       fy="44.892841"
       fx="13.948145"
       cy="44.892841"
       cx="13.948145"
       gradientTransform="matrix(0.97513378,0,0,0.04919072,34.047649,80.581722)"
       gradientUnits="userSpaceOnUse"
       id="radialGradient7462"
       xlink:href="#linearGradient3737"
       inkscape:collect="always" />
    <linearGradient
       id="linearGradient3737">
      <stop
         id="stop3739"
         style="stop-color:#ffffff;stop-opacity:1"
         offset="0" />
      <stop
         id="stop3741"
         style="stop-color:#ffffff;stop-opacity:0"
         offset="1" />
    </linearGradient>
    <radialGradient
       r="43.199203"
       fy="44.892841"
       fx="13.948145"
       cy="44.892841"
       cx="13.948145"
       gradientTransform="matrix(0.88832663,0,0,0.04919072,1058.0642,-90.1683)"
       gradientUnits="userSpaceOnUse"
       id="radialGradient7464"
       xlink:href="#linearGradient3737"
       inkscape:collect="always" />
    <linearGradient
       y2="14.514202"
       x2="50.527882"
       y1="-28.64156"
       x1="2.7713892"
       gradientUnits="userSpaceOnUse"
       id="linearGradient4767"
       xlink:href="#linearGradient3737"
       inkscape:collect="always" />
    <clipPath
       clipPathUnits="userSpaceOnUse"
       id="clipPath4156-4-1">
      <path
         style="opacity:0.6;fill:#ffffff;fill-opacity:1;stroke:none"
         d="m 27.046336,-55.695463 -14.21366,13.321486 h 0.06127 l 15.653407,21.770763 10.231384,-10.546177 C 38.561832,-32.30156 27.468089,-54.819245 27.046336,-55.695463 Z M 9.6468554,-39.382809 -5.2407289,-25.32124 15.987863,-7.8059573 26.372412,-18.382966 Z m 31.4906096,12.951445 -9.741259,9.713584 8.944804,12.4580526 7.780753,-7.5550056 z m -49.8397109,4.378822 -13.7541661,12.9822847 26.2830181,13.84571 0.06127,-0.0617 -0.122531,-0.0617 L 13.598503,-5.4007374 -8.7022409,-22.052595 Z m 38.0154159,7.400825 -9.802525,9.7752596 11.579232,9.5594001 7.62759,-7.40083 -8.669108,-11.0087257 z m 20.187073,5.6739697 -7.382526,7.2158 6.187844,8.54179 5.820249,-6.13651996 z m -32.195166,6.32154 -9.5574606,9.49772 13.6622686,7.1849703 7.933918,-7.6783603 z m 23.311629,2.37443004 -7.10683,6.93826996 8.362778,6.9074403 5.360756,-5.6739699 -0.06127,-0.0925 -0.0919,0.12335 -6.463539,-8.20258036 z m -8.730374,8.54178036 -7.505057,7.3391599 10.353916,5.45811 c 1.397496,-1.32103 5.67514,-6.12292 5.850882,-6.32154 z"
         id="path4158-0-8"
         inkscape:connector-curvature="0" />
    </clipPath>
    <linearGradient
       gradientUnits="userSpaceOnUse"
       y2="7.0165396"
       x2="45.447727"
       y1="92.539597"
       x1="45.447727"
       gradientTransform="scale(1.0058652,0.994169)"
       id="ButtonShadow-16">
      <stop
         id="stop3750-6"
         offset="0"
         style="stop-color:#000000;stop-opacity:1;" />
      <stop
         id="stop3752-4"
         offset="1"
         style="stop-color:#000000;stop-opacity:0.58823532;" />
    </linearGradient>
    <clipPath
       id="clipPath4355-7"
       clipPathUnits="userSpaceOnUse">
      <rect
         ry="6"
         rx="6"
         y="6"
         x="6"
         height="80"
         width="84"
         id="rect4357-5"
         style="fill:#ffffff;fill-opacity:1;fill-rule:nonzero;stroke:none" />
    </clipPath>
    <clipPath
       id="clipPath4355-9"
       clipPathUnits="userSpaceOnUse">
      <rect
         ry="6"
         rx="6"
         y="6"
         x="6"
         height="80"
         width="84"
         id="rect4357-1"
         style="fill:#ffffff;fill-opacity:1;fill-rule:nonzero;stroke:none" />
    </clipPath>
    <clipPath
       id="clipPath4355-1"
       clipPathUnits="userSpaceOnUse">
      <rect
         ry="6"
         rx="6"
         y="6"
         x="6"
         height="80"
         width="84"
         id="rect4357-9"
         style="fill:#ffffff;fill-opacity:1;fill-rule:nonzero;stroke:none" />
    </clipPath>
    <clipPath
       id="clipPath3943-52-0"
       clipPathUnits="userSpaceOnUse">
      <path
         inkscape:connector-curvature="0"
         style="color:#000000;display:inline;overflow:visible;visibility:visible;opacity:0.8;fill:#ff00ff;fill-opacity:1;fill-rule:nonzero;stroke:none;stroke-width:1;marker:none;enable-background:accumulate"
         d="m 69.78125,20.84375 -5,3.4375 c 5.586891,5.537137 9,13.327613 9,21.8125 0,8.434478 -3.37723,16.095981 -8.90625,21.625 l 5,3.4375 C 76.078226,64.5762 80,55.843726 80,46.09375 c 2e-6,-9.796556 -3.962955,-18.660417 -10.21875,-25.25 z M 40,24.0625 28.90625,36.21875 H 21.5 c -0.823281,0 -1.5,0.676717 -1.5,1.5 v 1 14.84375 1 c 0,0.823281 0.684121,1.610161 1.5,1.5 h 7.40625 L 40,68 V 66 26.0625 Z m 20.59375,3.28125 -5,3.4375 L 55.5,30.875 c 3.93815,3.890071 6.40625,9.25018 6.40625,15.21875 0,5.920869 -2.42961,11.148358 -6.3125,15.03125 l 0.09375,0.09375 5.09375,3.4375 c 4.475428,-4.908367 7.25,-11.402005 7.25,-18.5625 0,-7.230696 -2.87904,-13.83107 -7.4375,-18.75 z m -9.25,6.5 -5.21875,3.625 c 2.222384,2.217802 3.71875,5.239596 3.71875,8.625 0,3.336509 -1.458847,6.227712 -3.625,8.4375 l 5.21875,3.625 c 2.822412,-3.236947 4.53125,-7.43414 4.53125,-12.0625 0,-4.672601 -1.754155,-9.001351 -4.625,-12.25 z"
         id="path3945-4-1" />
    </clipPath>
    <radialGradient
       inkscape:collect="always"
       xlink:href="#linearGradient3737"
       id="radialGradient2055"
       gradientUnits="userSpaceOnUse"
       gradientTransform="matrix(0.97513378,0,0,0.04919072,33.898693,1106.6864)"
       cx="13.948145"
       cy="44.892841"
       fx="13.948145"
       fy="44.892841"
       r="43.199203" />
  </defs>
  <sodipodi:namedview
     id="base"
     pagecolor="#ffffff"
     bordercolor="#666666"
     borderopacity="1.0"
     inkscape:pageopacity="0.0"
     inkscape:pageshadow="2"
     inkscape:zoom="3.8541667"
     inkscape:cx="11.675677"
     inkscape:cy="37.621595"
     inkscape:document-units="px"
     inkscape:current-layer="g2101"
     showgrid="false"
     inkscape:showpageshadow="false"
     units="px"
     inkscape:lockguides="true"
     inkscape:window-width="1280"
     inkscape:window-height="996"
     inkscape:window-x="0"
     inkscape:window-y="0"
     inkscape:window-maximized="1">
    <sodipodi:guide
       position="0,0"
       orientation="0,96"
       id="guide1621"
       inkscape:locked="true" />
    <sodipodi:guide
       position="96.000002,0"
       orientation="-96,0"
       id="guide1623"
       inkscape:locked="true" />
    <sodipodi:guide
       position="96.000002,96.000002"
       orientation="0,-96"
       id="guide1625"
       inkscape:locked="true" />
    <sodipodi:guide
       position="0,96.000002"
       orientation="96,0"
       id="guide1627"
       inkscape:locked="true" />
  </sodipodi:namedview>
  <metadata
     id="metadata1069">
    <rdf:RDF>
      <cc:Work
         rdf:about="">
        <dc:format>image/svg+xml</dc:format>
        <dc:type
           rdf:resource="http://purl.org/dc/dcmitype/StillImage" />
        <dc:title />
        <dc:date>2017</dc:date>
        <dc:creator>
          <cc:Agent>
            <dc:title>Cristian Pozzessere  == ilnanny ==</dc:title>
          </cc:Agent>
        </dc:creator>
        <dc:subject>
          <rdf:Bag>
            <rdf:li>Global language</rdf:li>
          </rdf:Bag>
        </dc:subject>
        <dc:description>Playing with Inkscape on Gnu/Linux O. S.</dc:description>
        <dc:contributor>
          <cc:Agent>
            <dc:title>In the night, alone like a dog.</dc:title>
          </cc:Agent>
        </dc:contributor>
        <cc:license
           rdf:resource="http://creativecommons.org/licenses/by-sa/4.0/" />
      </cc:Work>
      <cc:License
         rdf:about="http://creativecommons.org/licenses/by-sa/4.0/">
        <cc:permits
           rdf:resource="http://creativecommons.org/ns#Reproduction" />
        <cc:permits
           rdf:resource="http://creativecommons.org/ns#Distribution" />
        <cc:requires
           rdf:resource="http://creativecommons.org/ns#Notice" />
        <cc:requires
           rdf:resource="http://creativecommons.org/ns#Attribution" />
        <cc:permits
           rdf:resource="http://creativecommons.org/ns#DerivativeWorks" />
        <cc:requires
           rdf:resource="http://creativecommons.org/ns#ShareAlike" />
      </cc:License>
    </rdf:RDF>
  </metadata>
  <g
     inkscape:label="Livello 1"
     inkscape:groupmode="layer"
     id="layer1"
     transform="translate(0,-1026.5197)">
    <path
       style="display:inline;opacity:0.15;fill:#000000;fill-opacity:1;fill-rule:nonzero;stroke:none"
       d="M 89.142854,1026.5197 H 6.8571346 c -3.7988479,0 -6.85713515,3.0583 -6.85713515,6.8572 v 82.2857 c 0,3.7988 3.05828725,6.8571 6.85713515,6.8571 H 89.142854 c 3.798857,0 6.857147,-3.0583 6.857147,-6.8571 v -82.2857 c 0,-3.7989 -3.05829,-6.8572 -6.857147,-6.8572 z"
       id="path3288"
       inkscape:connector-curvature="0" />
    <path
       inkscape:connector-curvature="0"
       id="path4085"
       d="M 88.499998,1027.2697 H 7.4999906 c -3.7394919,0 -6.74999295,3.0105 -6.74999295,6.75 v 81 c 0,3.7395 3.01050105,6.75 6.74999295,6.75 H 88.499998 c 3.739503,0 6.750003,-3.0105 6.750003,-6.75 v -81 c 0,-3.7395 -3.0105,-6.75 -6.750003,-6.75 z"
       style="display:inline;opacity:0.15;fill:#000000;fill-opacity:1;fill-rule:nonzero;stroke:none" />
    <path
       style="display:inline;fill:url(#linearGradient4071);fill-opacity:1;fill-rule:nonzero;stroke:none"
       d="M 87.857137,1028.0197 H 8.1428547 c -3.6801431,0 -6.6428566,2.9627 -6.6428566,6.6429 v 79.7143 c 0,3.6801 2.9627135,6.6428 6.6428566,6.6428 H 87.857137 c 3.680143,0 6.642854,-2.9627 6.642854,-6.6428 v -79.7143 c 0,-3.6802 -2.962711,-6.6429 -6.642854,-6.6429 z"
       id="rect4251-1"
       inkscape:connector-curvature="0" />
    <path
       style="display:inline;opacity:0.85799997;fill:#ebeef0;fill-opacity:1;fill-rule:nonzero;stroke:none;stroke-width:1.02950251"
       d="m 11.241291,1032.9069 c -2.8564968,0 -5.1241288,2.2883 -5.1241288,5.171 v 21.4273 7.2394 39.9137 c 1.0972399,1.6845 2.9688485,2.8117 5.1241288,2.8117 h 4.099303 65.588849 4.099302 c 2.155281,0 4.026889,-1.1272 5.124129,-2.8117 v -39.9137 -7.2394 -21.4273 c 0,-2.8827 -2.267632,-5.171 -5.124129,-5.171 z"
       id="path3400-6"
       inkscape:connector-curvature="0"
       sodipodi:nodetypes="sscccsccscccsss" />
    <path
       inkscape:connector-curvature="0"
       id="path4989"
       d="m 9.8250777,1031.2492 c -3.116621,0 -5.667965,2.5395 -5.667965,5.646 v 69.278 c 0,3.1065 2.551344,5.646 5.667965,5.646 H 86.616863 c 3.116621,0 5.667968,-2.5395 5.667968,-5.646 v -69.278 c 0,-3.1065 -2.551347,-5.646 -5.667968,-5.646 z m 0,2.3194 H 86.616863 c 1.888099,0 3.352022,1.4801 3.352022,3.3266 v 69.278 c 0,1.8465 -1.463923,3.3266 -3.352022,3.3266 H 9.8250777 c -1.888099,0 -3.352022,-1.4801 -3.352022,-3.3266 v -69.278 c 0,-1.8465 1.463923,-3.3266 3.352022,-3.3266 z"
       style="color:#000000;font-style:normal;font-variant:normal;font-weight:normal;font-stretch:normal;font-size:medium;line-height:normal;font-family:Sans;-inkscape-font-specification:Sans;text-indent:0;text-align:start;text-decoration:none;text-decoration-line:none;letter-spacing:normal;word-spacing:normal;text-transform:none;writing-mode:lr-tb;direction:ltr;baseline-shift:baseline;text-anchor:start;display:inline;overflow:visible;visibility:visible;fill:#241f1f;fill-opacity:0.63265303;stroke:none;stroke-width:2.3755002;marker:none;enable-background:accumulate" />
    <path
       inkscape:connector-curvature="0"
       style="display:inline;opacity:0.65818182;fill:url(#linearGradient4129);fill-opacity:1;fill-rule:nonzero;stroke:none"
       d="m 1.499997,1108.3635 v 6 c 0,3.6801 2.9761066,6.6562 6.6562497,6.6562 H 87.843747 c 3.680143,0 6.656254,-2.9761 6.656254,-6.6562 v -6 c 0,3.6801 -2.976111,6.6562 -6.656254,6.6562 H 8.1562467 c -3.6801431,0 -6.6562496,-2.9761 -6.6562497,-6.6562 z"
       id="path4118" />
    <rect
       style="opacity:0.55;fill:url(#radialGradient2055);fill-opacity:1;stroke:none"
       id="rect4131"
       width="84.250008"
       height="4.25"
       x="5.3749976"
       y="1106.7698"
       rx="0"
       ry="4.25" />
    <rect
       ry="4.25"
       rx="0"
       y="-90.085007"
       x="1032.0797"
       height="4.25"
       width="76.75"
       id="rect4141"
       style="opacity:0.669;fill:url(#radialGradient7464);fill-opacity:1;stroke:none"
       transform="rotate(90)" />
    <g
       transform="translate(97.53676,-127.16971)"
       id="g2101">
      <path
         style="fill:#43fde7;fill-opacity:1;stroke:none;stroke-width:1.48427904;stroke-miterlimit:4;stroke-dasharray:none;stroke-opacity:1;enable-background:new"
         d="m -152.06718,1172.3705 c -16.18625,0 -29.30664,12.9213 -29.30664,28.8613 0,0.3352 0.0139,0.6676 0.0254,1 0.5365,-15.4758 13.43577,-27.8613 29.28125,-27.8613 8.09223,0 15.43568,3.2157 20.73828,8.4395 l 8.57031,-8.4395 v -2 l -8.57031,8.4395 c -5.3026,-5.2238 -12.64605,-8.4395 -20.73828,-8.4395 z m 14.47852,14.6055 -7.13866,7.0293 h 2.03123 l 6.16016,-6.0664 c -0.34061,-0.3353 -0.69444,-0.6526 -1.05273,-0.9629 z m -36.42188,15.2558 c -0.0153,0.3326 -0.0254,0.6649 -0.0254,1 0,5.7812 2.28712,11.2076 6.43945,15.2949 4.15234,4.0874 9.65889,6.3418 15.5293,6.3418 5.87043,0 11.38075,-2.2526 15.53125,-6.3418 0.3462,-0.3409 0.6736,-0.6664 0.99414,-1.0253 l 4.5,3.8632 c 0.35577,-0.3602 0.70269,-0.7291 1.03907,-1.1074 l -5.53907,-4.7558 c -0.32054,0.3589 -0.64794,0.6844 -0.99414,1.0253 -4.1505,4.0892 -9.66082,6.3418 -15.53125,6.3418 -5.87041,0 -11.37696,-2.2544 -15.5293,-6.3418 -3.91206,-3.8508 -6.16604,-8.8902 -6.41406,-14.2949 z"
         id="path1985"
         inkscape:connector-curvature="0" />
      <path
         style="fill:#dc0000;fill-opacity:1;stroke:none;stroke-width:1.48427904;stroke-miterlimit:4;stroke-dasharray:none;stroke-opacity:1;enable-background:new"
         d="m -152.06718,1181.5971 c -5.87041,0 -11.3788,2.2526 -15.5293,6.3418 -4.15051,4.0891 -6.43945,9.5118 -6.43945,15.2929 0,0.3346 0.0108,0.6681 0.0254,1 0.24863,-5.4038 2.50416,-10.4408 6.41406,-14.2929 4.1505,-4.0892 9.65889,-6.3418 15.5293,-6.3418 5.38889,0 10.46888,1.9055 14.47852,5.3789 l 1.05273,-1.0371 c -4.15233,-4.0874 -9.66082,-6.3418 -15.53125,-6.3418 z m 9.37109,14.4082 -2.03123,2 h 21.96873 v -2 z m -38.65234,8.2265 c -0.0115,0.3328 -0.0254,0.6644 -0.0254,1 0,15.9401 13.12039,28.8633 29.30664,28.8633 8.79558,0 16.69225,-3.797 22.06446,-9.8379 l -1.03907,-0.8926 c -5.32613,5.3936 -12.78053,8.7305 -21.02539,8.7305 -15.84592,0 -28.74543,-12.3869 -29.28125,-27.8633 z"
         id="path1987"
         inkscape:connector-curvature="0" />
      <path
         sodipodi:nodetypes="cccccccccccccccccccccscc"
         style="fill:#08b608;fill-opacity:1;stroke:none;stroke-width:1.48427904;stroke-miterlimit:4;stroke-dasharray:none;stroke-opacity:1;enable-background:new"
         d="m -150.06718,1174.3705 c -0.33546,0 -0.66726,0.014 -0.99999,0.025 7.69566,0.2532 14.65519,3.4065 19.73827,8.4141 l 0.97658,-0.961 c -5.20492,-4.6543 -12.13138,-7.4785 -19.71486,-7.4785 z m 29.3086,0 -2.00001,1.9687 v 19.6661 h 2.00001 z m -31.3086,7.2266 c -29.52948,1.4035 -28.01186,42.8623 0,43.2714 0.33426,0 0.66827,-0.011 1.00001,-0.025 -28.17652,-2.5589 -26.77385,-41.6764 0,-43.2207 -0.33173,-0.015 -0.66575,-0.025 -1.00001,-0.025 z m 18.52539,35.9043 c -0.29295,0.328 -0.59466,0.6279 -0.90819,0.9375 l 4.44726,3.8183 c -5.17853,5.8231 -12.70525,9.5505 -21.11914,9.8125 0.35078,0.012 0.70088,0.025 1.05468,0.025 8.79558,0 16.69224,-3.797 22.06446,-9.8379 z"
         id="path1995"
         inkscape:connector-curvature="0" />
      <path
         style="fill:#8c0fff;fill-opacity:1;stroke:none;stroke-width:1.48427904;stroke-miterlimit:4;stroke-dasharray:none;stroke-opacity:1;enable-background:new"
         d="m -154.06718,1174.3705 c -16.18625,0 -29.30664,12.9213 -29.30664,28.8613 0,15.9401 13.12039,28.8633 29.30664,28.8633 0.31712,0 0.63061,-0.016 0.94532,-0.025 -15.6967,-0.5479 -28.25196,-13.2462 -28.25196,-28.8379 0,-15.6097 12.58449,-28.3155 28.30664,-28.8359 -0.33234,-0.011 -0.66501,-0.025 -1,-0.025 z m 29.30859,0 -7.59373,7.4785 c 0.34917,0.3123 0.69005,0.6325 1.02342,0.961 l 6.57031,-6.4708 z m -27.30859,7.2266 c -0.33486,0 -0.66767,0.011 -1,0.025 5.49412,0.2407 10.61535,2.4617 14.53125,6.3164 l -8.1914,8.0664 h 2.00001 l 8.19139,-8.0664 c -4.15233,-4.0874 -9.66082,-6.3418 -15.53125,-6.3418 z m 14.52539,35.9043 c -0.32054,0.3589 -0.64794,0.6844 -0.99414,1.0253 -3.91417,3.8564 -9.03695,6.0759 -14.53125,6.3165 0.33231,0.014 0.66514,0.025 1,0.025 5.87043,0 11.38075,-2.2527 15.53125,-6.3418 0.0298,-0.029 0.0564,-0.059 0.086,-0.088 z"
         id="path1997"
         inkscape:connector-curvature="0" />
      <g
         id="g870"
         transform="translate(1.0583591)">
        <path
           style="color:#000000;font-style:normal;font-variant:normal;font-weight:normal;font-stretch:normal;font-size:medium;line-height:normal;font-family:sans-serif;font-variant-ligatures:normal;font-variant-position:normal;font-variant-caps:normal;font-variant-numeric:normal;font-variant-alternates:normal;font-feature-settings:normal;text-indent:0;text-align:start;text-decoration:none;text-decoration-line:none;text-decoration-style:solid;text-decoration-color:#000000;letter-spacing:normal;word-spacing:normal;text-transform:none;writing-mode:lr-tb;direction:ltr;text-orientation:mixed;dominant-baseline:auto;baseline-shift:baseline;text-anchor:start;white-space:normal;shape-padding:0;clip-rule:nonzero;display:inline;overflow:visible;visibility:visible;opacity:1;isolation:auto;mix-blend-mode:normal;color-interpolation:sRGB;color-interpolation-filters:linearRGB;solid-color:#000000;solid-opacity:1;vector-effect:none;fill:#020303;fill-opacity:0.1857143;fill-rule:nonzero;stroke:none;stroke-width:3.84657359;stroke-linecap:butt;stroke-linejoin:miter;stroke-miterlimit:4;stroke-dasharray:none;stroke-dashoffset:0;stroke-opacity:1;color-rendering:auto;image-rendering:auto;shape-rendering:auto;text-rendering:auto;enable-background:new"
           d="m -18.617314,1167.4793 c -0.782588,1.018 -1.565175,2.0359 -2.347762,3.0539 -2.724175,-3.0259 -5.097906,2.1785 -7.227818,3.6225 -1.533099,1.7742 -2.990314,3.4711 -4.76943,0.9188 -5.615299,-4.1487 -12.669207,-6.1081 -19.609224,-5.7732 -1.71984,0.5583 -4.315041,0.5182 -6.285582,1.2367 -6.405008,1.6707 -11.923055,5.6952 -16.223992,10.636 -8.586123,9.2287 -10.1262,24.1664 -3.386512,34.8647 4.923568,7.5291 12.345947,13.9995 21.374261,15.789 10.373381,2.3235 21.754431,-1.2586 28.889254,-9.154 0.52438,-1.3311 3.858814,-2.618 2.842565,-3.9762 -1.081039,-1.1618 -2.178755,-2.1808 -3.260685,-3.2709 -2.112446,-1.8135 -4.224891,-3.6272 -6.337336,-5.4408 -3.98218,5.4059 -10.824107,8.3777 -17.492254,7.7678 -5.955031,-0.4299 -11.97958,-3.8958 -14.060073,-9.7252 -3.058339,-7.2848 -1.105688,-17.1193 5.921062,-21.3792 5.936817,-3.5335 13.786101,-3.5046 19.731815,-0.01 -3.117139,3.0646 -6.217916,6.1457 -9.317798,9.2277 1.644627,-0.01 3.289713,0.013 4.934056,-0.01 0.05761,2.1591 2.393217,1.9963 3.916764,1.9286 6.928468,0 13.856934,0 20.785402,0 -0.901522,-2.4087 2.337169,-2.4353 1.994205,-4.7666 -0.164979,-7.3653 -0.024,-14.758 -0.07092,-22.1338 0,-1.1365 -1e-6,-2.2728 -1e-6,-3.4093 z m -33.82468,7.6499 c 8.096349,-0.5445 16.329252,2.7591 21.723375,8.8351 2.110621,-2.0784 4.221501,-4.1566 6.331444,-6.2356 0,4.7631 0,9.5262 0,14.2893 -4.83639,0 -9.67278,0 -14.50917,0 1.96675,-1.9362 3.93327,-3.8725 5.899457,-5.8093 -5.32985,-6.2679 -14.063909,-9.2622 -22.124328,-7.6468 -9.681873,1.7145 -17.614766,10.2742 -18.482514,20.0862 -1.145313,9.6537 4.838482,19.4387 13.783997,23.1173 8.291337,3.7232 18.63124,1.7652 25.100526,-4.5849 1.697401,1.1934 3.291846,2.4802 0.638835,3.684 -8.906823,7.2141 -22.58859,7.8477 -31.891397,1.0148 -8.453747,-5.9363 -12.890102,-17.175 -10.170157,-27.2271 2.718297,-10.718 12.62786,-19.0019 23.699932,-19.523 z m -28.302743,25.2206 c 0.0082,0.026 -0.013,0.1096 0,0 z m 18.583008,18.3106 c 0.04239,0 0.187512,0.1316 0,0 z"
           id="path2017"
           inkscape:connector-curvature="0" />
        <path
           inkscape:connector-curvature="0"
           id="path7422-6"
           d="m -50.595138,1172.9136 c -15.565401,0 -28.183758,12.4265 -28.183758,27.7551 0,15.3287 12.618357,27.7551 28.183758,27.7551 8.458211,0 16.051376,-3.6517 21.217526,-9.4609 l -5.327139,-4.5735 c -0.308245,0.3451 -0.623241,0.6585 -0.956152,0.9864 -3.991301,3.9323 -9.288975,6.098 -14.934235,6.098 -5.645241,0 -10.941136,-2.1674 -14.934207,-6.098 -3.99308,-3.9306 -6.192233,-9.1477 -6.192233,-14.7071 0,-5.5594 2.200923,-10.7748 6.192233,-14.7071 3.991301,-3.9323 9.288966,-6.098 14.934207,-6.098 5.64526,0 10.941165,2.1675 14.934235,6.098 l -7.876879,7.7571 h 21.12644 v -20.8051 l -8.241139,8.1158 c -5.099211,-5.0234 -12.160818,-8.1158 -19.942657,-8.1158 z"
           style="fill:#62798e;fill-opacity:1;stroke:#374753;stroke-width:1.9232868;stroke-miterlimit:4;stroke-dasharray:none;stroke-opacity:1;enable-background:new" />
      </g>
    </g>
    <rect
       transform="matrix(1.0692451,0,0,1.0476829,4.2952237,1064.9987)"
       style="opacity:0.608;fill:url(#linearGradient4767);fill-opacity:1;stroke:none"
       id="rect4146"
       width="75.965775"
       height="69.024437"
       x="2"
       y="-30"
       rx="3.9569874"
       ry="3.9569881"
       clip-path="url(#clipPath4156-4-1)" />
  </g>
</svg>
